<svg fill="#f8f8f2" height="800px" width="800px" version="1.1" id="Capa_1"
	xmlns="http://www.w3.org/2000/svg" xmlns:xlink="http://www.w3.org/1999/xlink"
	viewBox="0 0 208.764 208.764" xml:space="preserve">
<path d="M206.305,60.678c-1.587,1.586-3.696,2.46-5.94,2.46c-2.244,0-4.353-0.874-5.94-2.46l-23.614-23.614
	c-1.191-1.192-2.776-1.848-4.461-1.848c-1.686,0-3.271,0.656-4.462,1.848c-1.192,1.191-1.849,2.776-1.848,4.461
	c0,1.685,0.656,3.27,1.848,4.461l23.614,23.614c3.275,3.276,3.275,8.605,0,11.881c-1.587,1.586-3.696,2.46-5.94,2.46
	s-4.353-0.874-5.94-2.46l-23.614-23.614c-1.191-1.192-2.776-1.848-4.461-1.848c-1.686,0-3.271,0.656-4.462,1.848
	c-2.46,2.46-2.46,6.463,0,8.923l23.614,23.614c1.586,1.587,2.46,3.697,2.46,5.94c0,2.244-0.874,4.354-2.461,5.94
	c-1.585,1.586-3.695,2.46-5.939,2.46c-2.244,0-4.353-0.874-5.94-2.46l-23.614-23.614c-1.191-1.192-2.776-1.848-4.461-1.848
	s-3.27,0.656-4.461,1.848c-1.192,1.191-1.848,2.776-1.848,4.461c0,1.686,0.656,3.271,1.848,4.462l23.614,23.614
	c3.275,3.276,3.275,8.605,0,11.88c-1.587,1.586-3.697,2.46-5.94,2.46s-4.354-0.874-5.94-2.46L108.4,99.475
	c-1.191-1.192-2.776-1.848-4.461-1.848c-1.686,0-3.27,0.656-4.461,1.848c-1.192,1.192-1.849,2.777-1.849,4.462
	c0,1.686,0.657,3.271,1.849,4.462l23.614,23.614c3.275,3.276,3.275,8.605,0,11.88c-1.587,1.586-3.697,2.46-5.94,2.46
	s-4.354-0.874-5.94-2.46l-23.614-23.614c-1.191-1.192-2.776-1.848-4.461-1.848c-1.686,0-3.27,0.656-4.461,1.848
	c-2.46,2.46-2.46,6.464,0,8.924l23.614,23.614c1.586,1.587,2.46,3.696,2.46,5.94c0,2.244-0.874,4.354-2.46,5.94
	c-1.587,1.586-3.697,2.46-5.94,2.46s-4.354-0.874-5.94-2.46l-23.614-23.614c-1.191-1.192-2.776-1.848-4.461-1.848
	c-1.686,0-3.27,0.656-4.461,1.848c-2.46,2.46-2.46,6.464,0,8.924l23.614,23.614c3.275,3.275,3.275,8.604,0,11.88
	c-1.587,1.587-3.697,2.461-5.94,2.461c-2.244,0-4.354-0.874-5.94-2.461l-23.614-23.613c-1.191-1.192-2.776-1.848-4.461-1.848
	c-1.685,0-3.27,0.656-4.461,1.848c-2.46,2.46-2.46,6.463,0,8.923l23.614,23.614c3.274,3.275,3.275,8.604,0,11.88
	c-1.587,1.587-3.696,2.461-5.94,2.461s-4.354-0.874-5.94-2.461L4.295,161.799c-2.769-2.769-4.293-6.45-4.293-10.365
	s1.525-7.597,4.293-10.366L141.07,4.293C143.839,1.525,147.52,0,151.436,0c3.916,0,7.597,1.525,10.366,4.293l44.503,44.503
	C209.581,52.073,209.581,57.402,206.305,60.678z"/>
</svg>