<svg width="274" height="218" viewBox="0 0 274 218" fill="none" xmlns="http://www.w3.org/2000/svg">
<path d="M136.999 217.656C108.296 217.656 82.8851 210.263 69.0257 197.882C63.9022 193.304 63.46 185.441 68.035 180.318C72.6132 175.195 80.4757 174.752 85.5991 179.329C93.0929 186.023 111.891 192.777 136.998 192.777C162.107 192.777 180.906 186.021 188.398 179.329C193.52 174.752 201.384 175.193 205.962 180.318C210.54 185.441 210.096 193.306 204.973 197.882C191.118 210.263 165.706 217.656 136.999 217.656Z" fill="#F8F8F2"/>
<path d="M62.9694 101.554C44.6834 101.554 28.31 96.5741 19.1709 88.235C14.0959 83.6038 13.738 75.7366 18.3677 70.66C22.999 65.585 30.8662 65.2272 35.9412 69.8568C39.5381 73.1397 49.5303 76.6741 62.9678 76.6741C76.4054 76.6741 86.3976 73.1397 89.9945 69.8568C95.0679 65.224 102.935 65.585 107.569 70.6584C112.201 75.7319 111.841 83.6006 106.768 88.2319C97.6304 96.5725 81.2569 101.554 62.9694 101.554Z" fill="#F8F8F2"/>
<path d="M13.1927 35.2115C9.12084 35.2115 5.1302 33.2146 2.74894 29.5443C-0.991688 23.7818 0.64582 16.0787 6.40989 12.3365C18.0552 4.7755 39.2006 0.261414 62.9725 0.261414C86.7413 0.261414 107.885 4.77394 119.532 12.3365C125.295 16.0771 126.932 23.7802 123.195 29.5427C119.452 35.3068 111.751 36.9443 105.987 33.2037C99.8038 29.1912 84.1069 25.1412 62.9725 25.1412C41.8365 25.1412 26.1381 29.1912 19.9568 33.2037C17.863 34.5615 15.5146 35.2115 13.1927 35.2115Z" fill="#F8F8F2"/>
<path d="M211.031 101.554C192.743 101.554 176.37 96.5741 167.23 88.2335C162.155 83.6022 161.798 75.735 166.429 70.66C171.06 65.585 178.931 65.2272 184.004 69.8584C187.601 73.1412 197.593 76.6756 211.031 76.6756C224.468 76.6756 234.46 73.1428 238.057 69.8584C243.129 65.2272 250.999 65.5865 255.631 70.6615C260.262 75.7366 259.903 83.6038 254.828 88.2366C245.692 96.5741 229.318 101.554 211.031 101.554Z" fill="#F8F8F2"/>
<path d="M260.807 35.2115C258.485 35.2115 256.139 34.563 254.045 33.2052C247.863 29.1912 232.165 25.1427 211.029 25.1427C189.895 25.1427 174.196 29.1912 168.015 33.2052C162.254 36.9459 154.549 35.3084 150.809 29.5443C147.068 23.7818 148.705 16.0787 154.47 12.3365C166.115 4.77707 187.26 0.261414 211.029 0.261414C234.799 0.261414 255.946 4.7755 267.592 12.3365C273.354 16.0771 274.992 23.7802 271.253 29.5443C268.87 33.2146 264.881 35.2115 260.807 35.2115Z" fill="#F8F8F2"/>
</svg>
