<svg fill="#f8f8f2" version="1.1" id="Layer_1" xmlns="http://www.w3.org/2000/svg"
	xmlns:xlink="http://www.w3.org/1999/xlink"
	viewBox="0 0 512 512" xml:space="preserve">
<g>
	<g>
		<polygon points="265.309,16.377 265.309,239.623 360.727,224.149 360.727,31.851 		"/>
	</g>
</g>
<g>
	<g>
		<rect x="395.636" y="34.909" width="81.455" height="186.182"/>
	</g>
</g>
<g>
	<g>
		<path d="M252.486,354.897L230.4,245.284V10.716L164.315,0h-1.406c-70.579,0-128,57.421-128,128
			c0,52.232,31.451,97.25,76.407,117.129l27.157,133.041c4.634,22.705,21.911,39.594,42.992,44.841v15.711
			c0,21.156-17.212,38.369-38.37,38.369s-38.367-17.212-38.367-38.369H69.818c0,40.405,32.872,73.278,73.278,73.278
			c40.406,0,73.279-32.873,73.279-73.278v-17.894C242.456,410.825,258.257,383.17,252.486,354.897z M180.364,145.455h-58.182
			v-34.909h58.182V145.455z"/>
	</g>
</g>
</svg>