<svg fill="#f8f8f2" height="800px" width="800px" version="1.1" id="Layer_1"
	xmlns="http://www.w3.org/2000/svg" xmlns:xlink="http://www.w3.org/1999/xlink"
	viewBox="0 0 511.999 511.999" xml:space="preserve">
<g>
	<g>
		<path d="M183.497,30.395v146.349c33.766,8.868,101.92,25.935,142.369,30.395V0C285.417,4.461,217.262,21.528,183.497,30.395z"/>
	</g>
</g>
<g>
	<g>
		<path d="M414.425,29.33c-15.73-15.116-35.165-25.191-55.096-28.867v206.213c19.931-3.676,39.366-13.751,55.096-28.867
			c21.174-20.345,32.834-46.71,32.834-74.24C447.26,76.041,435.599,49.676,414.425,29.33z"/>
	</g>
</g>
<g>
	<g>
		<polygon points="64.739,24.025 64.739,183.114 150.035,173.981 150.035,33.159 		"/>
	</g>
</g>
<g>
	<g>
		<path d="M362.653,373.618H416.8V218.585c-22.507,14.873-48.507,23.109-74.201,23.109c-16.132,0-40.582-3.402-74.202-10.344
			v142.269h60.694c-0.667,7.598-1.763,13.086-2.899,18.766c-1.97,9.849-4.203,21.013-4.203,42.059
			c0,21.046,2.233,32.21,4.203,42.059c1.827,9.135,3.553,17.765,3.553,35.497h33.462c0-21.046-2.233-32.21-4.203-42.059
			c-1.827-9.135-3.553-17.765-3.553-35.497s1.726-26.362,3.553-35.497C360.374,392.101,361.868,384.611,362.653,373.618z"/>
	</g>
</g>
</svg>