<svg fill="#f8f8f2" height="800px" width="800px" version="1.1" id="Layer_1"
	xmlns="http://www.w3.org/2000/svg" xmlns:xlink="http://www.w3.org/1999/xlink"
	viewBox="0 0 512 512" xml:space="preserve">
<g>
	<g>
		<path d="M155.703,167.61c-8.918,8.918-16.909,18.506-23.946,28.635c14.867,9.691,29.801,12.594,29.959,12.623
			c27.873,5.158,55.994-0.832,79.276-16.845c23.282-16.012,38.935-40.134,44.074-67.919l0.063-0.325
			c0.015-0.076,1.448-7.266,2.104-16.143C237.654,110.94,191.378,131.934,155.703,167.61z"/>
	</g>
</g>
<g>
	<g>
		<path d="M331.2,133.174c-3.223-3.223-6.512-6.352-9.853-9.404c-0.549,3.704-1.038,6.245-1.181,6.968
			c-5.033,27.055-17.506,50.884-34.904,69.78c20.75,10.389,43.249,13.53,64.034,8.559c13.836-3.309,24.426-9.018,30.123-12.594
			C366.481,173.601,350.335,152.308,331.2,133.174z"/>
	</g>
</g>
<g>
	<g>
		<path d="M125.475,47.628h-6.249c-24.271,19.274-44.488,43.691-58.759,71.122c-16.189,31.12-24.746,66.229-24.746,101.53
			c0,35.803,8.592,69.634,23.814,99.552v-6.839c0-64.312,25.183-124.914,70.91-170.64c33.81-33.811,75.757-56.374,121.318-65.846
			C212.807,57.617,169.873,47.628,125.475,47.628z"/>
	</g>
</g>
<g>
	<g>
		<path d="M256,0c-28.321,0-55.862,5.31-81.564,15.57c68.52,10.309,131.872,42.196,182.022,92.345
			c57.61,57.608,91.117,132.641,95.499,212.918c15.54-30.163,24.322-64.351,24.322-100.553C476.279,98.817,377.462,0,256,0z"/>
	</g>
</g>
<g>
	<g>
		<path d="M395.108,228.778c-8.477,4.972-21.289,11.162-37.505,15.039c-9.233,2.208-18.67,3.294-28.154,3.294
			c-25.152,0-50.631-7.653-73.551-22.245c-22.011,13.743-47.813,21.518-74.795,21.518c-8.511,0-17.139-0.773-25.801-2.377
			c-0.848-0.152-20.744-3.853-41.311-16.729c-12.263,26.583-18.736,55.673-18.736,85.714v81.129
			C95.256,459.12,148.136,512,213.135,512h85.73c64.999,0,117.879-52.88,117.879-117.879v-55.223
			C416.744,300.561,409.299,263.314,395.108,228.778z M178.605,375.07c-23.016,0-41.674-18.658-41.674-41.674
			s18.658-41.674,41.674-41.674c23.016,0,41.674,18.658,41.674,41.674S201.621,375.07,178.605,375.07z M256,440.558
			c-16.44,0-29.767-13.328-29.767-29.767h59.535C285.767,427.231,272.44,440.558,256,440.558z M333.395,375.07
			c-23.016,0-41.674-18.658-41.674-41.674s18.658-41.674,41.674-41.674s41.674,18.658,41.674,41.674S356.411,375.07,333.395,375.07z
			"/>
	</g>
</g>
</svg>