<svg fill="#f8f8f2" height="800px" width="800px" version="1.1" id="Layer_1"
	xmlns="http://www.w3.org/2000/svg" xmlns:xlink="http://www.w3.org/1999/xlink"
	viewBox="0 0 512 512" xml:space="preserve">
<g>
	<g>
		<path d="M331.439,147.911H180.561c-6.306,11.897-9.894,25.445-9.894,39.822V512h170.667V187.733
			C341.333,173.356,337.745,159.808,331.439,147.911z M233.537,244.354l45.51,0.18l-0.135,34.133l-45.51-0.18L233.537,244.354z
			 M233.537,392.802l-0.135-34.133l45.51-0.18l0.135,34.133L233.537,392.802z M221.957,336.003l-0.18-34.133l68.267-0.358
			l0.18,34.133L221.957,336.003z"/>
	</g>
</g>
<g>
	<g>
		<path d="M278.756,0h-45.511c-18.851,0-34.133,15.283-34.133,34.133v79.644h39.822V85.333h34.133v28.444h39.822V34.133
			C312.889,15.283,297.606,0,278.756,0z"/>
	</g>
</g>
</svg>