<svg fill="#f8f8f2" height="800px" width="800px" version="1.1" id="Capa_1"
	xmlns="http://www.w3.org/2000/svg" xmlns:xlink="http://www.w3.org/1999/xlink"
	viewBox="0 0 57.849 57.849" xml:space="preserve">
<path d="M57.263,6.129c-0.593-0.449-1.41-0.408-1.94,0.112c-0.576,0.485-4.826,2.868-8.643,2.566
	C44.168,8.615,41.9,7.41,39.855,6.014c-2.114-1.443-3.907-3.278-6.642-3.278c-1.629,0-3.119,0.642-4.29,1.811
	c-1.172-1.169-2.662-1.811-4.29-1.811c-2.502,0-4.353,1.643-6.267,3.024c-2.09,1.509-4.59,2.848-7.201,3.048
	c-3.813,0.3-8.068-2.083-8.615-2.541C2.018,5.746,1.187,5.693,0.596,6.142C0.003,6.59-0.173,7.404,0.183,8.057l0.105,0.197
	c1.9,3.612,4.018,6.528,6.301,8.681v15.858c0,12.308,10.013,22.32,22.347,22.32c12.308,0,22.32-10.013,22.32-22.32V16.935
	c2.283-2.153,4.4-5.069,6.301-8.681l0.105-0.197C58.018,7.404,57.856,6.578,57.263,6.129z M41.725,22.149V32.69
	c-3.599-2.812-8.117-4.38-12.802-4.38s-9.203,1.567-12.803,4.375V22.149c1.286,0.279,2.605,0.424,3.894,0.424
	c2.659,0,4.827-0.595,5.994-1.638c1.11-0.729,2.101-1.74,2.915-2.96c0.813,1.219,1.804,2.231,2.914,2.96
	c1.167,1.043,3.335,1.638,5.994,1.638C39.119,22.573,40.439,22.428,41.725,22.149z"/>
</svg>