<svg width="209" height="43" viewBox="0 0 209 43" fill="none" xmlns="http://www.w3.org/2000/svg">
<path d="M53.056 21.768C50.9867 21.768 49.9733 21.2453 50.016 20.2C50.016 19.2187 51.008 18.728 52.992 18.728C53.4613 18.728 53.9093 18.7813 54.336 18.888C55.04 18.184 55.392 17.1173 55.392 15.688C55.392 13.2133 53.7387 11.976 50.432 11.976C48.704 11.976 47.0613 12.3493 45.504 13.096C44.928 13.3733 44.4053 13.6293 43.936 13.864C43.488 14.0987 43.072 14.216 42.688 14.216C42.304 14.216 42.112 14.0987 42.112 13.864C42.112 13.5867 42.3253 13.1813 42.752 12.648C43.1787 12.0933 43.776 11.5387 44.544 10.984C46.5067 9.61867 48.736 8.92533 51.232 8.904C54.496 8.904 56.896 9.55467 58.432 10.856C59.7547 11.944 60.416 13.4267 60.416 15.304C60.416 17.48 59.3493 19.144 57.216 20.296C59.264 21.4693 60.48 22.9093 60.864 24.616C60.992 25.2133 61.056 26.0027 61.056 26.984C61.056 27.9653 60.7893 28.8933 60.256 29.768C59.7227 30.6427 59.008 31.3787 58.112 31.976C56.32 33.128 54.0267 33.704 51.232 33.704C49.248 33.704 47.04 33.256 44.608 32.36C42.9867 31.7627 41.792 31.048 41.024 30.216C40.64 29.8107 40.448 29.4053 40.448 29C40.4693 28.5947 40.672 28.392 41.056 28.392C41.4613 28.392 42.2187 28.5307 43.328 28.808V28.776C43.328 27.112 43.52 25.4053 43.904 23.656C44.5653 20.6053 45.3333 18.216 46.208 16.488C47.1467 14.568 48.1173 13.608 49.12 13.608C49.3973 13.608 49.536 14.088 49.536 15.048C49.536 16.008 49.44 16.9893 49.248 17.992C49.0773 18.9947 48.8853 19.9867 48.672 20.968C48.48 21.928 48.288 22.8027 48.096 23.592C47.9253 24.3813 47.84 24.9467 47.84 25.288L47.52 30.12C48.7787 30.4613 49.8453 30.632 50.72 30.632C51.5947 30.632 52.384 30.4827 53.088 30.184C54.8587 29.4373 55.744 28.136 55.744 26.28C55.744 25.1707 55.6373 24.2533 55.424 23.528C55.2107 22.8027 54.8267 22.1627 54.272 21.608C53.7813 21.7147 53.376 21.768 53.056 21.768ZM83.2643 25.448C83.6483 25.448 83.8403 25.9387 83.8403 26.92C83.8403 27.4533 83.6163 28.104 83.1683 28.872C82.7203 29.6187 82.1336 30.312 81.4083 30.952C80.7043 31.5707 79.9149 32.0827 79.0403 32.488C78.1656 32.8933 77.3123 33.096 76.4803 33.096C75.3496 33.096 74.5923 32.104 74.2083 30.12C73.6536 31.0373 72.9283 31.7947 72.0323 32.392C71.1363 32.968 69.9309 33.256 68.4163 33.256C66.9229 33.256 65.7176 32.7867 64.8003 31.848C63.8829 30.9093 63.4349 29.768 63.4563 28.424C63.4563 24.7973 64.6616 21.9387 67.0723 19.848C68.0963 18.9733 69.0456 18.3973 69.9203 18.12C70.8163 17.8427 71.7549 17.704 72.7363 17.704C73.7176 17.704 74.5176 17.8747 75.1363 18.216C75.4349 17.5973 75.7763 17.288 76.1603 17.288C76.9069 17.288 77.6109 17.6187 78.2723 18.28C78.9549 18.92 79.2963 19.528 79.2963 20.104C78.9976 20.808 78.5603 21.6507 77.9843 22.632C77.8136 23.6133 77.7283 24.9893 77.7283 26.76C77.7283 28.5307 77.9523 29.416 78.4003 29.416C78.9549 29.416 80.2989 28.3067 82.4323 26.088C82.8163 25.6613 83.0936 25.448 83.2643 25.448ZM68.1603 27.368C68.1603 29.0107 68.7683 29.832 69.9843 29.832C71.2856 29.8107 72.3629 29.1173 73.2163 27.752C73.5149 27.2827 73.7603 26.7067 73.9523 26.024C73.9523 23.6347 74.1656 21.5867 74.5923 19.88C72.8643 20.2213 71.3603 21.0533 70.0803 22.376C68.8003 23.6987 68.1603 25.3627 68.1603 27.368ZM86.9133 27.624L87.1053 31.528C87.1053 32.04 86.8386 32.4987 86.3053 32.904C85.7719 33.3093 85.0466 33.512 84.1293 33.512C83.5959 33.512 83.2226 33.2347 83.0093 32.68C82.8173 32.1253 82.7213 31.3147 82.7213 30.248C82.7213 28.008 82.8279 26.2587 83.0413 25C83.2759 23.72 83.7239 22.4293 84.3853 21.128C83.4039 20.1893 82.9133 19.3787 82.9133 18.696C82.9133 17.2667 83.6813 16.552 85.2173 16.552C86.0066 16.552 86.6999 16.968 87.2973 17.8C87.7239 18.376 88.0333 19.048 88.2253 19.816C88.5239 19.9227 88.8973 19.976 89.3453 19.976C89.9639 19.976 90.6786 19.7733 91.4893 19.368L92.3213 18.952C92.5773 18.824 92.8013 18.76 92.9933 18.76C93.6119 18.76 94.2306 19.6667 94.8493 21.48C94.6573 22.312 94.4439 23.112 94.2093 23.88C93.9959 24.648 93.7399 25.576 93.4413 26.664C93.1426 27.752 92.9826 28.488 92.9613 28.872C92.9613 29.2347 93.0786 29.416 93.3133 29.416C93.6333 29.416 94.0279 29.2133 94.4973 28.808C94.9666 28.4027 95.4359 27.9653 95.9053 27.496C96.3746 27.0053 96.8013 26.5573 97.1853 26.152C97.5906 25.7467 97.8679 25.544 98.0173 25.544C98.3159 25.544 98.4653 25.9067 98.4653 26.632C98.4653 28.104 97.8146 29.5547 96.5133 30.984C95.2333 32.4133 93.7613 33.1173 92.0973 33.096C91.1159 33.096 90.3799 32.7013 89.8893 31.912C89.3986 31.1227 89.1426 30.1627 89.1213 29.032C89.1213 26.792 89.6226 24.6693 90.6253 22.664C90.1559 22.856 89.6226 22.952 89.0253 22.952C88.4493 22.952 88.0333 22.9307 87.7773 22.888C87.5853 23.6987 87.3933 24.52 87.2013 25.352C87.0093 26.1627 86.9133 26.92 86.9133 27.624ZM99.5543 17.96C97.9756 17.2773 97.1863 16.616 97.1863 15.976C97.1863 15.6347 97.3249 15.4747 97.6023 15.496C97.9863 15.496 98.4236 15.592 98.9143 15.784C99.4049 15.9547 99.9063 16.0933 100.418 16.2C102.168 12.8933 104.152 10.728 106.37 9.704C107.117 9.36267 107.864 9.18133 108.61 9.16C110.082 9.16 111.202 9.52267 111.97 10.248C112.76 10.952 113.154 11.816 113.154 12.84C113.154 14.6747 112.162 16.0933 110.178 17.096C108.557 17.9067 106.349 18.408 103.554 18.6C102.552 21.0747 102.05 23.7307 102.05 26.568C102.05 28.68 102.541 29.9067 103.522 30.248C104.205 30.4827 104.717 30.4933 105.058 30.28C105.4 30.0453 105.666 29.7467 105.858 29.384C106.05 29 106.146 28.4453 106.146 27.72C106.168 26.9947 105.965 26.3867 105.538 25.896C105.133 25.384 104.738 24.9147 104.354 24.488C104.546 23.784 104.824 23.1973 105.186 22.728C105.869 21.8107 106.456 21.352 106.946 21.352C107.437 21.352 107.832 21.5227 108.13 21.864C108.45 22.2053 108.706 22.632 108.898 23.144C109.09 23.656 109.24 24.2107 109.346 24.808C109.474 25.4053 109.613 25.96 109.762 26.472C109.912 26.984 110.093 27.4107 110.306 27.752C110.541 28.0933 110.84 28.264 111.202 28.264C111.586 28.264 111.928 28.1253 112.226 27.848C112.525 27.5493 112.792 27.2293 113.026 26.888C113.261 26.5467 113.474 26.2373 113.666 25.96C113.858 25.6613 114.05 25.512 114.242 25.512C114.456 25.512 114.658 25.6827 114.85 26.024C115.064 26.3653 115.17 26.6853 115.17 26.984C115.17 27.6667 114.829 28.4773 114.146 29.416C113.485 30.3547 112.632 30.824 111.586 30.824C110.541 30.8027 109.73 30.5787 109.154 30.152C108.792 31.048 108.173 31.7947 107.298 32.392C106.424 32.9893 105.176 33.288 103.554 33.288C101.954 33.288 100.578 32.872 99.4263 32.04C98.0396 31.0373 97.3463 29.48 97.3463 27.368C97.3463 24.36 98.0823 21.224 99.5543 17.96ZM109.634 13.416C109.613 12.6693 109.336 12.296 108.802 12.296C108.29 12.296 107.618 12.6907 106.786 13.48C105.954 14.2693 105.154 15.368 104.386 16.776C106.712 16.3707 108.301 15.656 109.154 14.632C109.453 14.248 109.613 13.8427 109.634 13.416ZM120.854 29.512C122.518 29.512 124.128 28.8507 125.686 27.528C126.262 27.0373 126.731 26.5893 127.094 26.184C127.456 25.7573 127.734 25.544 127.926 25.544C128.224 25.544 128.374 25.8427 128.374 26.44C128.374 27.0373 128.214 27.7093 127.894 28.456C127.574 29.1813 127.04 29.896 126.294 30.6C124.459 32.328 121.942 33.192 118.742 33.192C116.203 33.192 114.475 32.2747 113.558 30.44C113.238 29.8 113.078 28.8827 113.078 27.688C113.078 26.4933 113.312 25.256 113.782 23.976C114.251 22.6747 114.87 21.5547 115.638 20.616C116.427 19.6773 117.334 18.952 118.358 18.44C119.382 17.9067 120.47 17.64 121.622 17.64C122.795 17.64 123.691 17.928 124.31 18.504C124.95 19.08 125.27 19.8267 125.27 20.744C125.27 21.6613 125.035 22.4187 124.566 23.016C124.118 23.592 123.531 24.0827 122.806 24.488C122.08 24.872 121.27 25.224 120.374 25.544C119.499 25.8427 118.635 26.184 117.782 26.568V27.368C117.803 28.136 118.123 28.68 118.742 29C119.36 29.32 120.064 29.4907 120.854 29.512ZM120.31 20.488C119.2 20.488 118.432 21.7787 118.006 24.36C118.454 24.0613 118.87 23.7947 119.254 23.56C119.659 23.3253 120.011 23.1013 120.31 22.888C120.95 22.4187 121.28 21.8853 121.302 21.288C121.302 20.7547 120.971 20.488 120.31 20.488ZM131.445 27.624L131.637 31.528C131.637 32.04 131.37 32.4987 130.837 32.904C130.303 33.3093 129.578 33.512 128.661 33.512C128.127 33.512 127.754 33.2347 127.541 32.68C127.349 32.1253 127.253 31.3147 127.253 30.248C127.253 28.008 127.359 26.2587 127.573 25C127.807 23.72 128.255 22.4293 128.917 21.128C127.935 20.1893 127.445 19.3787 127.445 18.696C127.445 17.2667 128.213 16.552 129.749 16.552C130.538 16.552 131.231 16.968 131.829 17.8C132.255 18.376 132.565 19.048 132.757 19.816C133.055 19.9227 133.429 19.976 133.877 19.976C134.495 19.976 135.21 19.7733 136.021 19.368L136.853 18.952C137.109 18.824 137.333 18.76 137.525 18.76C138.143 18.76 138.762 19.6667 139.381 21.48C139.189 22.312 138.975 23.112 138.741 23.88C138.527 24.648 138.271 25.576 137.973 26.664C137.674 27.752 137.514 28.488 137.493 28.872C137.493 29.2347 137.61 29.416 137.845 29.416C138.165 29.416 138.559 29.2133 139.029 28.808C139.498 28.4027 139.967 27.9653 140.437 27.496C140.906 27.0053 141.333 26.5573 141.717 26.152C142.122 25.7467 142.399 25.544 142.549 25.544C142.847 25.544 142.997 25.9067 142.997 26.632C142.997 28.104 142.346 29.5547 141.045 30.984C139.765 32.4133 138.293 33.1173 136.629 33.096C135.647 33.096 134.911 32.7013 134.421 31.912C133.93 31.1227 133.674 30.1627 133.653 29.032C133.653 26.792 134.154 24.6693 135.157 22.664C134.687 22.856 134.154 22.952 133.557 22.952C132.981 22.952 132.565 22.9307 132.309 22.888C132.117 23.6987 131.925 24.52 131.733 25.352C131.541 26.1627 131.445 26.92 131.445 27.624ZM148.694 17.512C150.123 17.4907 151.19 17.7573 151.894 18.312C152.598 18.8453 152.95 19.624 152.95 20.648C152.95 21.6507 152.64 22.5147 152.022 23.24C151.424 23.944 150.688 24.4453 149.814 24.744C150.432 25.384 150.987 26.0347 151.478 26.696C151.99 27.3573 152.246 28.0507 152.246 28.776C152.246 30.2053 151.68 31.3147 150.55 32.104C149.419 32.872 147.84 33.256 145.814 33.256C143.808 33.256 142.304 32.8613 141.302 32.072C140.299 31.2613 139.797 30.3547 139.797 29.352C139.797 28.328 140.043 27.4 140.534 26.568C141.046 25.736 141.59 25.32 142.166 25.32C142.507 25.32 142.752 25.448 142.902 25.704C143.051 25.9387 143.328 26.6427 143.734 27.816C143.883 28.2427 144.128 28.648 144.47 29.032C145.259 29.9067 146.507 30.344 148.214 30.344C147.958 29.5333 147.542 28.84 146.966 28.264C146.411 27.6667 145.856 27.0907 145.302 26.536C144.747 25.9813 144.256 25.3947 143.83 24.776C143.403 24.136 143.19 23.3893 143.19 22.536C143.19 21 143.766 19.752 144.918 18.792C146.006 17.9387 147.264 17.512 148.694 17.512ZM148.566 23.432C149.419 22.5147 149.845 21.7787 149.845 21.224C149.845 20.968 149.75 20.744 149.558 20.552C149.387 20.3387 149.131 20.232 148.79 20.232C148.448 20.232 148.118 20.2747 147.798 20.36C147.499 20.4453 147.254 20.5093 147.062 20.552C147.062 21.3627 147.563 22.3227 148.566 23.432ZM164.897 22.248C164.897 21.48 164.439 21.096 163.521 21.096C162.625 21.096 161.74 21.8 160.865 23.208C159.991 24.5947 159.447 26.0133 159.233 27.464C159.276 27.9547 159.319 28.4453 159.361 28.936C159.404 29.4267 159.425 29.9067 159.425 30.376C159.425 31.5067 159.052 32.2747 158.305 32.68C157.964 32.872 157.633 33.0533 157.313 33.224C157.015 33.3947 156.663 33.48 156.257 33.48C155.852 33.48 155.489 33.2133 155.169 32.68C154.871 32.1253 154.721 31.272 154.721 30.12C154.721 26.8987 154.956 24.104 155.425 21.736C156.151 18.0667 157.591 14.1413 159.745 9.96C160.044 9.384 160.481 9.10667 161.057 9.128C161.633 9.128 162.103 9.52267 162.465 10.312C162.828 11.1013 162.999 11.7627 162.977 12.296C162.977 12.8293 162.892 13.352 162.721 13.864C162.572 14.3547 162.369 14.8453 162.113 15.336C161.879 15.8053 161.601 16.296 161.281 16.808C160.983 17.2987 160.684 17.832 160.385 18.408L159.905 20.712C160.737 19.3253 161.857 18.3973 163.265 17.928C163.777 17.7573 164.343 17.672 164.961 17.672C166.412 17.672 167.511 18.0027 168.257 18.664C169.004 19.304 169.377 20.2213 169.377 21.416C169.377 22.5893 169.217 23.784 168.897 25C168.599 26.216 168.375 27.0907 168.225 27.624C168.097 28.136 168.033 28.5627 168.033 28.904C168.033 29.2453 168.151 29.416 168.385 29.416C168.705 29.416 169.1 29.2133 169.569 28.808C170.039 28.4027 170.508 27.9653 170.977 27.496C171.447 27.0053 171.873 26.5573 172.257 26.152C172.663 25.7467 172.94 25.544 173.089 25.544C173.388 25.544 173.537 25.9067 173.537 26.632C173.537 28.1253 172.801 29.5653 171.329 30.952C168.855 32.4027 167.276 33.128 166.593 33.128C166.529 33.128 166.487 33.1173 166.465 33.096C164.759 33.096 163.905 31.7307 163.905 29C163.905 27.8267 164.012 26.7493 164.225 25.768C164.46 24.7867 164.631 24.072 164.737 23.624C164.844 23.176 164.897 22.7173 164.897 22.248ZM184.857 30.28C183.171 32.264 181.145 33.256 178.777 33.256C176.43 33.256 174.67 32.6587 173.497 31.464C172.323 30.248 171.747 28.744 171.769 26.952C171.747 24.4133 172.547 22.2267 174.169 20.392C175.79 18.5573 177.913 17.64 180.537 17.64C181.731 17.64 182.691 17.7893 183.417 18.088C184.675 18.6 185.305 19.08 185.305 19.528C185.305 19.8693 184.419 20.0507 182.649 20.072C180.899 20.072 179.427 20.68 178.233 21.896C177.059 23.0907 176.473 24.6053 176.473 26.44C176.473 27.4 176.75 28.2107 177.305 28.872C177.881 29.512 178.681 29.832 179.705 29.832C180.75 29.832 181.614 29.6187 182.297 29.192C180.782 28.168 180.025 26.6853 180.025 24.744C180.003 23.72 180.366 22.792 181.113 21.96C181.881 21.1067 182.851 20.68 184.025 20.68C185.219 20.6587 186.073 20.9787 186.585 21.64C187.097 22.3013 187.353 23.1547 187.353 24.2C187.353 25.224 187.107 26.312 186.617 27.464H186.809C187.747 27.4427 188.558 27.112 189.241 26.472C189.497 26.216 189.71 25.992 189.881 25.8C190.073 25.608 190.265 25.512 190.457 25.512C190.755 25.512 190.905 25.864 190.905 26.568C190.905 27.8693 190.521 28.8507 189.753 29.512C188.985 30.152 188.131 30.472 187.193 30.472C186.275 30.472 185.497 30.408 184.857 30.28ZM184.569 26.568C184.931 25.8 185.113 25.0533 185.113 24.328C185.113 23.6027 184.878 23.24 184.409 23.24C184.217 23.24 184.057 23.3787 183.929 23.656C183.801 23.9333 183.737 24.2 183.737 24.456C183.737 25.3093 184.014 26.0133 184.569 26.568ZM195.352 19.592C196.461 18.3333 197.88 17.704 199.608 17.704C202.082 17.704 203.65 18.7067 204.312 20.712C204.504 21.3093 204.6 21.9707 204.6 22.696C204.6 24.3173 204.066 25.9173 203 27.496C201.954 29.0747 200.685 30.1413 199.192 30.696H199.576C201.133 30.696 202.712 30.12 204.312 28.968C205.336 28.2427 206.136 27.496 206.712 26.728C207.309 25.9387 207.757 25.544 208.056 25.544C208.354 25.544 208.504 25.8853 208.504 26.568C208.504 27.7627 207.992 28.968 206.968 30.184C205.432 31.9333 203.469 32.9573 201.08 33.256C199.352 33.448 198.125 33.48 197.4 33.352C196.674 33.224 196.12 33.064 195.736 32.872C194.904 32.4453 194.488 31.8053 194.488 30.952C194.488 30.4827 194.584 30.056 194.776 29.672C196.461 29.672 197.741 29.032 198.616 27.752C199.49 26.472 199.928 24.872 199.928 22.952C199.928 22.4827 199.757 22.0667 199.416 21.704C199.074 21.32 198.616 21.128 198.04 21.128C197.485 21.128 196.877 21.3733 196.216 21.864C195.554 22.3547 195.021 22.9733 194.616 23.72C194.232 24.4453 193.88 25.1707 193.56 25.896C193.24 26.6 192.984 27.496 192.792 28.584C192.45 30.5467 192.056 33.0213 191.608 36.008C191.181 39.016 190.914 40.6267 190.808 40.84C190.701 41.0747 190.541 41.288 190.328 41.48C190.114 41.672 189.89 41.768 189.656 41.768C189.229 41.768 188.877 41.64 188.6 41.384C187.832 40.7227 187.384 40.2107 187.256 39.848C187.128 39.5067 187.064 39.0587 187.064 38.504C187.064 36.4133 187.416 33.48 188.12 29.704C188.824 25.928 190.04 22.0027 191.768 17.928C192.024 17.3307 192.472 17.032 193.112 17.032C193.773 17.032 194.402 17.608 195 18.76C195.17 19.0587 195.288 19.336 195.352 19.592Z" fill="black"/>
<path d="M15 31C15 28.2386 12.7614 26 10 26C7.23858 26 5 28.2386 5 31C5 33.7614 7.23858 36 10 36C12.7614 36 15 33.7614 15 31Z" stroke="black" stroke-width="4" stroke-linecap="round" stroke-linejoin="round"/>
<path d="M35 31C35 28.2386 32.7614 26 30 26C27.2386 26 25 28.2386 25 31C25 33.7614 27.2386 36 30 36C32.7614 36 35 33.7614 35 31Z" stroke="black" stroke-width="4" stroke-linecap="round" stroke-linejoin="round"/>
<path d="M6.66669 7.66666L26.4667 27.4667" stroke="black" stroke-width="4" stroke-linecap="round" stroke-linejoin="round"/>
<path d="M24.1334 16.8833L33.3334 7.66666" stroke="black" stroke-width="4" stroke-linecap="round" stroke-linejoin="round"/>
<path d="M13.5333 27.4667L20 21" stroke="black" stroke-width="4" stroke-linecap="round" stroke-linejoin="round"/>
</svg>
