<?xml version="1.0" encoding="UTF-8"?>
<!DOCTYPE svg PUBLIC "-//W3C//DTD SVG 1.1//EN" "http://www.w3.org/Graphics/SVG/1.1/DTD/svg11.dtd">
<!-- Creator: CorelDRAW -->
<svg xmlns="http://www.w3.org/2000/svg" xml:space="preserve" width="512px" height="512px" version="1.1" style="shape-rendering:geometricPrecision; text-rendering:geometricPrecision; image-rendering:optimizeQuality; fill-rule:evenodd; clip-rule:evenodd"
viewBox="0 0 512 512"
 xmlns:xlink="http://www.w3.org/1999/xlink">
 <defs>
  <style type="text/css">
   <![CDATA[
    .fil0 {fill:black}
   ]]>
  </style>
 </defs>
 <g id="Layer_x0020_1">
  <metadata id="CorelCorpID_0Corel-Layer"/>
  <g id="_592626448">
   <g>
    <g>
     <g>
      <path class="fil0" d="M296 336c-4,0 -7,-3 -7,-6 0,-1 0,-3 0,-4 -1,-5 -1,-10 -3,-11 -11,-9 -33,-9 -40,-8 0,0 -1,0 -1,0 -1,0 -125,1 -157,7 0,0 0,0 0,0 -11,1 -14,7 -15,16 0,4 -4,7 -8,6 -3,0 -6,-4 -6,-8 2,-16 11,-26 27,-28 33,-6 150,-7 159,-7 3,0 33,-2 49,11 7,5 8,13 9,21 0,1 0,2 0,3 0,4 -2,8 -6,8 0,0 -1,0 -1,0z"/>
     </g>
     <g>
      <path class="fil0" d="M138 310c-3,0 -6,-2 -7,-5 -4,-14 -8,-20 -15,-22 0,0 0,0 0,0 -8,-3 -9,-8 -9,-10 0,-8 11,-16 32,-22 34,-10 80,-13 98,14 3,5 6,9 8,12 8,11 11,15 12,19 2,4 0,8 -4,10 -3,1 -7,-1 -9,-4 -1,-3 -4,-7 -11,-17 -2,-3 -5,-7 -8,-12 0,0 0,0 0,0 -8,-12 -25,-15 -38,-15 -25,-1 -51,7 -62,13 11,6 16,18 19,30 2,4 0,8 -4,9 -1,0 -1,0 -2,0z"/>
     </g>
     <g>
      <path class="fil0" d="M245 471l-126 0c-28,0 -55,-11 -75,-31 -20,-21 -31,-48 -31,-76l0 -25c0,-9 8,-17 17,-17l305 0c9,0 17,8 17,17l0 25c0,59 -48,107 -107,107zm-215 -135c-2,0 -3,2 -3,3l0 25c0,51 41,93 92,93l126 0c51,0 93,-42 93,-93l0 -25c0,-1 -2,-3 -3,-3l-305 0z"/>
     </g>
     <g>
      <path class="fil0" d="M235 512l-105 0c-7,0 -12,-5 -12,-11l0 -8c0,-15 10,-29 27,-36 1,-1 3,-1 4,-1 5,1 10,1 15,1l36 0c6,0 10,0 14,-1 2,0 3,0 5,1 17,7 28,21 28,36l0 8c0,6 -7,11 -12,11zm-103 -14l101 0 0 -5c0,-9 -7,-17 -18,-23 -5,1 -10,1 -15,1l-36 0c-5,0 -10,0 -15,-1 -11,5 -17,14 -17,23l0 5z"/>
     </g>
     <g>
      <path class="fil0" d="M344 372l-323 0c-4,0 -7,-3 -7,-7 0,-4 3,-7 7,-7l323 0c4,0 7,3 7,7 0,4 -3,7 -7,7z"/>
     </g>
    </g>
    <g>
     <g>
      <g>
       <path class="fil0" d="M369 157c-2,0 -3,-1 -5,-2 -3,-2 -3,-7 0,-10l114 -122c0,0 0,0 0,0 4,-3 6,-6 7,-9 -3,1 -6,3 -9,6 0,0 0,0 0,0l-122 115c-3,3 -7,3 -10,0 -3,-3 -3,-7 0,-10l122 -115c8,-8 21,-14 29,-8 1,1 1,1 2,2 5,7 1,20 -9,29l-114 122c-1,1 -3,2 -5,2zm118 -143l0 0 0 0z"/>
      </g>
      <g>
       <path class="fil0" d="M334 260c0,0 0,0 0,0 -2,0 -4,-1 -5,-2l-88 -89c-1,-1 -2,-3 -2,-5 0,-2 1,-4 2,-5l28 -27c10,-10 27,-11 43,-3l18 -18c3,-3 7,-3 10,0l25 24c0,0 0,0 0,0l23 24c3,3 3,7 0,10l-18 18c8,16 7,33 -3,43l-28 28c-1,1 -3,2 -5,2zm-78 -96l78 79 23 -23c6,-6 6,-19 -2,-30 -2,-3 -1,-7 1,-9l17 -17 -18 -19 -20 -19 -17 17c-2,2 -6,3 -9,1 -11,-8 -24,-8 -30,-2 0,0 0,0 0,0l-23 22z"/>
      </g>
      <g>
       <path class="fil0" d="M328 276c-4,0 -8,-1 -11,-3 -1,-1 -1,-1 -1,-1l-89 -90c-5,-5 -6,-15 -1,-22 1,0 1,-1 1,-1 7,-7 17,-7 24,0 3,3 3,7 0,10 -3,3 -7,3 -10,0 -1,-1 -2,-1 -4,0 0,1 0,3 0,3l89 90c1,1 3,1 4,0 1,-1 1,-3 0,-4 -3,-3 -3,-7 0,-10 3,-2 7,-2 10,0 7,7 7,17 0,24 0,0 0,1 -1,1 -3,2 -7,3 -11,3zm7 -9l0 0 0 0z"/>
      </g>
      <g>
       <g>
        <path class="fil0" d="M296 293c-2,0 -4,-1 -5,-2 -3,-3 -3,-7 0,-10l22 -23c3,-3 7,-3 10,0 3,3 3,7 0,10l-22 23c-1,1 -3,2 -5,2z"/>
       </g>
       <g>
        <path class="fil0" d="M284 281c-2,0 -4,-1 -5,-2 -3,-3 -3,-7 0,-10l22 -22c3,-3 7,-3 10,0 3,3 3,7 0,10l-22 22c-1,1 -3,2 -5,2z"/>
       </g>
       <g>
        <path class="fil0" d="M272 269c-2,0 -4,-1 -5,-2 -3,-3 -3,-7 0,-10l23 -22c3,-3 7,-3 10,0 3,3 3,7 0,10l-23 22c-2,1 -3,2 -5,2z"/>
       </g>
       <g>
        <path class="fil0" d="M260 258c-2,0 -4,-1 -5,-2 -3,-3 -3,-7 0,-10l23 -23c3,-3 7,-3 10,0 3,3 3,7 0,10l-23 23c-1,1 -3,2 -5,2z"/>
       </g>
       <g>
        <path class="fil0" d="M248 246c-2,0 -4,-1 -5,-2 -3,-3 -3,-7 0,-10l23 -23c3,-3 7,-3 10,0 3,3 3,7 0,10l-23 23c-1,1 -3,2 -5,2z"/>
       </g>
       <g>
        <path class="fil0" d="M237 234c-2,0 -4,-1 -5,-2 -3,-3 -3,-7 0,-10l22 -23c3,-3 7,-3 10,0 3,3 3,7 0,10l-22 23c-1,1 -3,2 -5,2z"/>
       </g>
       <g>
        <path class="fil0" d="M225 222c-2,0 -4,-1 -5,-2 -3,-3 -3,-7 0,-10l22 -22c3,-3 7,-3 10,0 3,3 3,7 0,10l-22 22c-1,1 -3,2 -5,2z"/>
       </g>
       <g>
        <path class="fil0" d="M213 210c-2,0 -4,-1 -5,-2 -3,-3 -3,-7 0,-10l23 -22c3,-3 7,-3 10,0 3,3 3,7 0,10l-23 22c-2,1 -3,2 -5,2z"/>
       </g>
      </g>
     </g>
     <g>
      <path class="fil0" d="M320 214c-3,0 -7,-1 -10,-4l-21 -21c-6,-6 -6,-15 0,-21l11 -11c6,-6 15,-6 21,0l21 21c6,6 6,15 0,21l-11 11c-3,3 -7,4 -11,4zm-10 -47c0,0 0,0 0,0l-11 11c0,0 0,1 0,1l21 21c0,0 1,0 1,0l11 -11c0,0 0,-1 0,-1l-21 -21c0,0 0,0 -1,0z"/>
     </g>
    </g>
   </g>
  </g>
 </g>
</svg>
